# xmcd
#
# Track frame offsets:
#	150
#	17564
#	28285
#	45091
#	66860
#	81709
#	116040
#	129631
#	140372
#	166553
#	189547
#	201818
#	222502
#	240462
#
# Disc length: 3260
#
# Revision: 1
# Processed by: cddbd v1.5.1PL0 Copyright (c) Steve Scherf et al.
# Submitted via: CDex 1.51
# Normalized: r0:TDELIM( - )
#
DISCID=c40cba0e
DTITLE=New Orleans Gumbo - Fab 14
DYEAR=1900
DGENRE=Blues
TTITLE0=Tracy Nelson - Miss You Like The Devil
TTITLE1=Professor Longhair - Every Day Every Night
TTITLE2=Bo Dollis and The Wild Magnolias - Iku Iku
TTITLE3=The Mardi Gras Indians - Yella Pocahontas
TTITLE4=James Bonker - Baby Face
TTITLE5=Johnny Adams - Half Awoke
TTITLE6=Irma Thomas - I Won't Cry For Me
TTITLE7=Tommy Ridgley - Three Times
TTITLE8=Davelt Crawford - Still In Love
TTITLE9=Marcia Ball - That's What I Got
TTITLE10=Al Johnson - Carnival Time
TTITLE11=Chuck Carbo - I'd Rather Beg
TTITLE12=George Porter Jr. - Runnin' Partner
TTITLE13=Tuts Washington - Cherry Pink and Apple Blossom White
EXTD=
EXTT0=
EXTT1=
EXTT2=
EXTT3=
EXTT4=
EXTT5=
EXTT6=
EXTT7=
EXTT8=
EXTT9=
EXTT10=
EXTT11=
EXTT12=
EXTT13=
PLAYORDER=
